<?xml version="1.0" encoding="UTF-8"?>
<svg xmlns="http://www.w3.org/2000/svg" xmlns:xlink="http://www.w3.org/1999/xlink" width="48pt" height="48pt" viewBox="0 0 48 48" version="1.1">
<defs>
<linearGradient id="linear0" gradientUnits="userSpaceOnUse" x1="-324.925" y1="481.786" x2="-324.925" y2="486.196" gradientTransform="matrix(0,-1,-1,0,512,-281.89)">
<stop offset="0.365" style="stop-color:rgb(9.803922%,60.392157%,87.843137%);stop-opacity:1;"/>
<stop offset="0.699" style="stop-color:rgb(9.411765%,59.607843%,87.058824%);stop-opacity:1;"/>
<stop offset="0.819" style="stop-color:rgb(8.627451%,56.862745%,84.705882%);stop-opacity:1;"/>
<stop offset="0.905" style="stop-color:rgb(6.666667%,52.54902%,80%);stop-opacity:1;"/>
<stop offset="0.974" style="stop-color:rgb(3.921569%,45.882353%,73.72549%);stop-opacity:1;"/>
<stop offset="1" style="stop-color:rgb(2.745098%,42.352941%,70.196078%);stop-opacity:1;"/>
</linearGradient>
<linearGradient id="linear1" gradientUnits="userSpaceOnUse" x1="-321.313" y1="500.757" x2="-317.639" y2="475.497" gradientTransform="matrix(0,-1,-1,0,512,-281.89)">
<stop offset="0" style="stop-color:rgb(19.607843%,74.117647%,93.72549%);stop-opacity:1;"/>
<stop offset="1" style="stop-color:rgb(11.764706%,63.529412%,89.411765%);stop-opacity:1;"/>
</linearGradient>
<linearGradient id="linear2" gradientUnits="userSpaceOnUse" x1="-327.545" y1="506.914" x2="-321.336" y2="464.224" gradientTransform="matrix(0,-1,-1,0,512,-281.89)">
<stop offset="0" style="stop-color:rgb(19.607843%,74.117647%,93.72549%);stop-opacity:1;"/>
<stop offset="1" style="stop-color:rgb(11.764706%,63.529412%,89.411765%);stop-opacity:1;"/>
</linearGradient>
<linearGradient id="linear3" gradientUnits="userSpaceOnUse" x1="288.854" y1="481.786" x2="288.854" y2="486.196" gradientTransform="matrix(0.000000000000000061,1,-1,0.000000000000000061,512,-283.89)">
<stop offset="0.365" style="stop-color:rgb(9.803922%,60.392157%,87.843137%);stop-opacity:1;"/>
<stop offset="0.699" style="stop-color:rgb(9.411765%,59.607843%,87.058824%);stop-opacity:1;"/>
<stop offset="0.819" style="stop-color:rgb(8.627451%,56.862745%,84.705882%);stop-opacity:1;"/>
<stop offset="0.905" style="stop-color:rgb(6.666667%,52.54902%,80%);stop-opacity:1;"/>
<stop offset="0.974" style="stop-color:rgb(3.921569%,45.882353%,73.72549%);stop-opacity:1;"/>
<stop offset="1" style="stop-color:rgb(2.745098%,42.352941%,70.196078%);stop-opacity:1;"/>
</linearGradient>
<linearGradient id="linear4" gradientUnits="userSpaceOnUse" x1="292.467" y1="500.757" x2="296.141" y2="475.497" gradientTransform="matrix(0.000000000000000061,1,-1,0.000000000000000061,512,-283.89)">
<stop offset="0" style="stop-color:rgb(19.607843%,74.117647%,93.72549%);stop-opacity:1;"/>
<stop offset="1" style="stop-color:rgb(11.764706%,63.529412%,89.411765%);stop-opacity:1;"/>
</linearGradient>
<linearGradient id="linear5" gradientUnits="userSpaceOnUse" x1="286.234" y1="506.914" x2="292.444" y2="464.224" gradientTransform="matrix(0.000000000000000061,1,-1,0.000000000000000061,512,-283.89)">
<stop offset="0" style="stop-color:rgb(19.607843%,74.117647%,93.72549%);stop-opacity:1;"/>
<stop offset="1" style="stop-color:rgb(11.764706%,63.529412%,89.411765%);stop-opacity:1;"/>
</linearGradient>
</defs>
<g id="surface1812">
<path style=" stroke:none;fill-rule:nonzero;fill:url(#linear0);" d="M 25 46.070312 L 25 40 L 29.863281 40 C 30.308594 40 30.53125 40.539062 30.21875 40.855469 Z M 25 46.070312 "/>
<path style=" stroke:none;fill-rule:nonzero;fill:url(#linear1);" d="M 26 43 L 22 43 L 22 33 C 22 32.449219 22.449219 32 23 32 L 25 32 C 25.550781 32 26 32.449219 26 33 Z M 26 43 "/>
<path style=" stroke:none;fill-rule:nonzero;fill:url(#linear2);" d="M 25.707031 45.363281 L 24.707031 46.363281 C 24.316406 46.753906 23.683594 46.753906 23.292969 46.363281 L 17.78125 40.855469 C 17.46875 40.539062 17.691406 40 18.136719 40 L 26 40 L 26 44.65625 C 26 44.921875 25.894531 45.175781 25.707031 45.363281 Z M 25.707031 45.363281 "/>
<path style=" stroke:none;fill-rule:nonzero;fill:rgb(44.705882%,49.019608%,52.54902%);fill-opacity:1;" d="M 45 19 L 45 21 C 45 21.550781 44.550781 22 44 22 L 4 22 C 3.449219 22 3 21.550781 3 21 L 3 19 C 3 18.449219 3.449219 18 4 18 L 44 18 C 44.550781 18 45 18.449219 45 19 Z M 45 19 "/>
<path style=" stroke:none;fill-rule:nonzero;fill:url(#linear3);" d="M 25 1.929688 L 25 8 L 29.863281 8 C 30.308594 8 30.53125 7.460938 30.21875 7.144531 Z M 25 1.929688 "/>
<path style=" stroke:none;fill-rule:nonzero;fill:url(#linear4);" d="M 26 5 L 22 5 L 22 15 C 22 15.550781 22.449219 16 23 16 L 25 16 C 25.550781 16 26 15.550781 26 15 Z M 26 5 "/>
<path style=" stroke:none;fill-rule:nonzero;fill:url(#linear5);" d="M 25.707031 2.636719 L 24.707031 1.636719 C 24.316406 1.246094 23.683594 1.246094 23.292969 1.636719 L 17.78125 7.144531 C 17.46875 7.460938 17.691406 8 18.136719 8 L 26 8 L 26 3.34375 C 26 3.078125 25.894531 2.824219 25.707031 2.636719 Z M 25.707031 2.636719 "/>
<path style=" stroke:none;fill-rule:nonzero;fill:rgb(44.705882%,49.019608%,52.54902%);fill-opacity:1;" d="M 45 29 L 45 27 C 45 26.449219 44.550781 26 44 26 L 4 26 C 3.449219 26 3 26.449219 3 27 L 3 29 C 3 29.550781 3.449219 30 4 30 L 44 30 C 44.550781 30 45 29.550781 45 29 Z M 45 29 "/>
</g>
</svg>
